<svg width="120" height="120" viewBox="0 0 120 120" fill="none" xmlns="http://www.w3.org/2000/svg">
<g opacity="0.8">
<path d="M74.9998 70H82.9498C83.9395 70.0019 84.9065 70.2965 85.7292 70.8468C86.5518 71.3971 87.1932 72.1785 87.5727 73.0925C87.9522 74.0065 88.0529 75.0124 87.862 75.9836C87.671 76.9547 87.1971 77.8476 86.4998 78.55L63.5498 101.5C63.0873 101.963 62.5378 102.331 61.9329 102.582C61.3281 102.833 60.6797 102.962 60.0248 102.962C59.37 102.962 58.7216 102.833 58.1167 102.582C57.5118 102.331 56.9624 101.963 56.4998 101.5L33.5498 78.548C32.8477 77.8516 32.3679 76.9627 32.1709 75.9936C31.974 75.0246 32.0689 74.0189 32.4435 73.1037C32.8181 72.1885 33.4557 71.405 34.2756 70.8522C35.0955 70.2994 36.061 70.0021 37.0498 69.998H45.4998C45.4998 44.998 37.4998 27.498 19.9998 14.998C44.9998 20 69.9998 35 74.9998 70Z" fill="url(#paint0_linear_20620_91651)"/>
<path fill-rule="evenodd" clip-rule="evenodd" d="M85.8996 75.5978C86.0144 75.0138 85.9539 74.409 85.7257 73.8594C85.4975 73.3098 85.1119 72.84 84.6172 72.5091C84.1231 72.1786 83.5423 72.0015 82.9478 72C82.9484 72 82.9472 72 82.9478 72H74.9999C74.0046 72 73.1608 71.2681 73.02 70.2828C70.5859 53.2438 63.3134 41.1818 53.6829 32.7548C46.2806 26.2777 37.4232 21.8959 28.171 19.0967C41.418 31.5264 47.4999 48.0422 47.4999 69.998C47.4999 71.1025 46.6045 71.998 45.4999 71.998H37.0544C36.4624 72.0012 35.8847 72.1795 35.3938 72.5105C34.9018 72.8422 34.5193 73.3123 34.2945 73.8614C34.0697 74.4105 34.0128 75.0139 34.131 75.5953C34.2491 76.1768 34.5371 76.7101 34.9583 77.128L34.9642 77.1338L57.9142 100.086C58.191 100.363 58.5212 100.585 58.8831 100.735C59.2451 100.885 59.6331 100.962 60.0249 100.962C60.4168 100.962 60.8048 100.885 61.1667 100.735C61.5287 100.585 61.8575 100.365 62.1343 100.087L85.0806 77.1409C85.0814 77.1401 85.0821 77.1394 85.0829 77.1386C85.5009 76.7166 85.7851 76.1806 85.8996 75.5978ZM89.42 72.3256C89.9508 73.6041 90.0916 75.011 89.8245 76.3694C89.5575 77.7277 88.8946 78.9767 87.9192 79.9591L87.9142 79.9642L64.9656 102.913C64.3173 103.562 63.5472 104.078 62.6994 104.429C61.8516 104.781 60.9428 104.962 60.0249 104.962C59.1071 104.962 58.1983 104.781 57.3505 104.429C56.5033 104.078 55.7337 103.563 55.0857 102.914M55.0857 102.914L32.1415 79.968C32.1405 79.967 32.1395 79.966 32.1385 79.965C31.1572 78.9905 30.4865 77.7472 30.2111 76.3919C29.9354 75.0352 30.0682 73.6273 30.5927 72.346C31.1171 71.0648 32.0098 69.9679 33.1576 69.1939C34.3055 68.42 35.6571 68.0038 37.0415 67.998L37.0499 67.998H43.4823C43.0654 44.5906 35.2492 28.3481 18.8375 16.6254C18.0702 16.0774 17.7899 15.068 18.1648 14.2028C18.5396 13.3377 19.4678 12.8518 20.3923 13.0368C33.1266 15.5847 45.9816 20.7009 56.317 29.7446C66.353 38.5264 73.9143 50.928 76.7164 68L82.9538 68C84.3381 68.0026 85.6907 68.4148 86.8413 69.1845C87.9919 69.9542 88.8891 71.0471 89.42 72.3256" fill="white"/>
</g>
<defs>
<linearGradient id="paint0_linear_20620_91651" x1="59.1427" y1="102.962" x2="9.48922" y2="12.5261" gradientUnits="userSpaceOnUse">
<stop stop-color="#A058FF"/>
<stop offset="1" stop-color="#00CCBB"/>
</linearGradient>
</defs>
</svg>
