<svg width="120" height="18" viewBox="0 0 121 16" fill="none" xmlns="http://www.w3.org/2000/svg">
<g clip-path="url(#clip0_818_297)">
<path d="M52.0465 13.8877C48.1951 13.8877 45.2774 11.012 45.2774 7.19677C45.2774 3.38156 48.1846 0.505859 52.0465 0.505859C54.3375 0.505859 56.4453 1.59242 57.6847 3.41191L57.8166 3.60565L56.0006 4.73188L55.8839 4.54982C55.0424 3.27886 53.6454 2.54943 52.05 2.54943C49.4217 2.54943 47.4388 4.54748 47.4388 7.19677C47.4388 9.84607 49.4229 11.8441 52.05 11.8441C53.6454 11.8441 55.0424 11.1159 55.8839 9.84373L56.0006 9.66283L57.8166 10.7879L57.6847 10.9828C56.4453 12.7965 54.3375 13.8877 52.0465 13.8877Z" fill="#26C7D9"/>
<path d="M68.6273 3.49128C67.7006 2.4269 66.313 1.8667 64.5868 1.8667C61.3774 1.8667 58.9568 4.39695 58.9568 7.75349C58.9568 11.11 61.3774 13.6403 64.5868 13.6403C66.3083 13.6403 67.7006 13.0801 68.6273 12.0157V13.3835H70.8378V2.12346H68.6273V3.49128ZM64.9288 11.4952C62.8082 11.4952 61.2081 9.88693 61.2081 7.75349C61.2081 5.62006 62.8082 4.01181 64.9288 4.01181C67.0494 4.01181 68.6273 5.62006 68.6273 7.75349C68.6273 9.88693 67.0377 11.4952 64.9288 11.4952Z" fill="#26C7D9"/>
<path d="M79.5303 1.8667C77.9897 1.8667 76.6382 2.36154 75.7956 3.23103V2.12346H73.5851V13.3835H75.7956V7.09176C75.7956 5.22441 77.0292 4.01181 78.9385 4.01181C80.758 4.01181 81.9333 5.20341 81.9333 7.04624V13.3812H84.1426V6.47203C84.1368 3.7177 82.2857 1.8667 79.5303 1.8667Z" fill="#26C7D9"/>
<path d="M90.9304 10.5183L87.3824 2.12231H84.8592L89.8053 13.3835H91.9913L96.9374 2.12231H94.4795L90.9304 10.5183Z" fill="#26C7D9"/>
<path d="M106.712 3.49012C105.786 2.4269 104.394 1.8667 102.671 1.8667C99.4618 1.8667 97.0413 4.39695 97.0413 7.75349C97.0413 11.11 99.4618 13.6403 102.671 13.6403C104.394 13.6403 105.786 13.0789 106.712 12.0157V13.3835H108.922V2.12346H106.712V3.49012ZM106.712 7.75349C106.712 9.88693 105.122 11.4952 103.013 11.4952C100.904 11.4952 99.2937 9.88693 99.2937 7.75349C99.2937 5.62006 100.893 4.01181 103.013 4.01181C105.134 4.01181 106.712 5.62006 106.712 7.75349Z" fill="#26C7D9"/>
<path d="M116.111 6.65179C114.711 6.32151 113.495 6.03557 113.495 5.08206C113.495 4.1974 114.59 3.79826 115.674 3.79826C116.752 3.78942 117.791 4.20335 118.568 4.95134L118.722 5.09957L120.006 3.40962L119.876 3.29291C119.079 2.57048 117.699 1.70801 115.647 1.70801C113.429 1.70801 111.181 2.78406 111.181 5.18827C111.181 7.71034 113.487 8.28688 115.34 8.75021C116.663 9.0665 117.913 9.36527 117.913 10.3211C117.913 11.1649 116.973 11.71 115.516 11.71C114.195 11.71 113.044 11.2431 112.185 10.3643L112.034 10.2079L110.743 11.8757L110.86 11.9924C112.077 13.1595 113.736 13.799 115.528 13.799C118.344 13.799 120.236 12.3308 120.236 10.1437C120.25 7.63214 117.955 7.08595 116.111 6.65179Z" fill="#26C7D9"/>
<path d="M25.3855 2.11292H23.0514V13.3917H25.3855V2.11292Z" fill="#26C7D9"/>
<path d="M40.3324 2.11292H37.9983V13.3917H40.3324V2.11292Z" fill="#26C7D9"/>
<path d="M14.3776 0.606205C14.0248 0.535704 13.6659 0.50013 13.3062 0.5C11.9639 0.500925 10.666 0.98101 9.64621 1.85382C9.11617 1.50414 8.52055 1.2659 7.89557 1.15357C7.58195 1.09731 7.26418 1.06725 6.94556 1.0637H6.88137C4.34413 1.0637 1.99361 2.69762 1.03193 5.124C0.130937 7.39982 0.0130623 10.1565 0.672467 13.5527L0.685303 13.6216L2.78606 13.2143L2.77322 13.1454C2.18968 10.1215 2.26554 7.82231 3.02298 5.90945C3.65437 4.31288 5.24044 3.19831 6.92689 3.19831C7.1265 3.20037 7.32561 3.21911 7.52211 3.25433C7.79482 3.30391 8.0577 3.39731 8.30055 3.53093C7.8646 4.3257 7.57298 5.19145 7.43924 6.08801C7.25857 7.25665 7.31173 8.44952 7.59563 9.59745C7.73101 10.1425 7.98427 10.9361 8.60749 11.5371C9.07064 11.9873 9.68893 12.2426 10.3348 12.2502C10.6855 12.2519 11.0312 12.1665 11.3408 12.0017C12.0831 11.6002 12.5196 10.8147 12.6375 9.66748C12.7943 7.96379 12.5331 6.24755 11.8765 4.66767C11.6832 4.21184 11.4451 3.77632 11.1657 3.36753C11.784 2.89433 12.5405 2.63724 13.319 2.63577C13.5333 2.63566 13.7471 2.65637 13.9574 2.69763C15.5914 3.02324 16.9335 4.10514 17.733 5.74139C18.9806 8.29381 18.7682 11.7227 17.1681 14.9135L17.1366 14.9754L19.0436 15.9324L19.0751 15.8705C20.9728 12.0892 21.1875 7.95185 19.6505 4.80422C18.5522 2.55757 16.6791 1.06604 14.3776 0.606205ZM9.53883 6.4183C9.59793 6.0364 9.69409 5.66116 9.82593 5.2979C10.4099 6.59693 10.6456 8.02562 10.5098 9.44339C10.4562 9.96508 10.3325 10.1086 10.3301 10.1156C10.237 10.1053 10.1499 10.0642 10.0827 9.99893C9.9088 9.83087 9.77458 9.53909 9.66021 9.07926C9.4431 8.20919 9.40183 7.30453 9.53883 6.4183Z" fill="#26C7D9"/>
<path d="M32.5748 2.26237C31.8384 2.37908 30.8872 2.57515 30.0714 3.06299C29.1681 3.60452 28.6709 4.08069 28.2507 4.81362C27.6824 5.81849 27.6824 6.8782 27.6882 7.81888V13.3987H29.9314V7.88423C29.9314 7.00542 29.9745 6.43471 30.25 5.9387C30.8148 4.92333 32.0123 4.62106 32.9938 4.47167C33.6564 4.38303 34.3246 4.34402 34.993 4.35496H35.8403V2.11415H35.0234C34.2046 2.09968 33.3859 2.14924 32.5748 2.26237Z" fill="#26C7D9"/>
</g>
<defs>
<clipPath id="clip0_818_297">
<rect width="120" height="15.4336" fill="white" transform="translate(0.249992 0.5)"/>
</clipPath>
</defs>
</svg>
