<svg width="32" height="32" viewBox="0 0 32 32" fill="none" xmlns="http://www.w3.org/2000/svg">
<mask id="mask0_585_39492" maskUnits="userSpaceOnUse" x="0" y="0" width="32" height="32">
<path d="M8.66867 0H23.3313C28.116 0 32 3.884 32 8.66867V23.3313C32 28.116 28.116 32 23.3313 32H8.66867C3.884 32 0 28.116 0 23.3313V8.66867C0 3.884 3.884 0 8.66867 0Z" fill="white"/>
</mask>
<g mask="url(#mask0_585_39492)">
<path d="M32.7836 26.0081C34.4016 20.4804 33.7451 14.9722 31.0252 11.2696C29.269 8.87903 26.8045 7.53512 24.086 7.48709C23.9564 7.48447 23.8243 7.48732 23.6932 7.4948C23.4729 7.50736 23.2507 7.53405 23.0319 7.57323C21.7828 7.79936 20.6222 8.44379 19.7632 9.38821L19.674 9.48611L19.7675 9.57961C20.3015 10.1154 20.798 10.7302 21.2446 11.4072C22.6689 13.5636 23.6376 16.4064 23.8369 19.012C23.9742 20.8104 23.5268 22.1353 22.5083 22.9506C22.0989 23.2785 21.5956 23.5035 21.0523 23.6019C20.9102 23.6273 20.7643 23.645 20.6185 23.6533C19.7865 23.7008 18.9358 23.4655 18.2236 22.9912C17.0991 22.2413 16.4849 21.0831 16.1211 20.2772C15.3566 18.5799 14.9287 16.6972 14.8839 14.8334C14.8483 13.331 15.0576 11.9068 15.506 10.5998L15.5512 10.467L15.4184 10.4225C14.9793 10.2759 14.5237 10.2011 14.0649 10.2005C13.9567 10.2007 13.8481 10.2035 13.7396 10.2097C13.5226 10.2221 13.3023 10.2467 13.0867 10.2837C10.3987 10.7701 8.13659 13.0345 7.58451 15.7897C6.93087 19.0476 7.46197 22.7179 9.25586 27.3387L6.32333 28.4788C4.3304 23.3419 3.73368 18.9888 4.49967 15.1716C5.31295 11.1181 8.51248 7.91482 12.4622 7.19953L12.562 7.18249C12.89 7.1264 13.2258 7.08856 13.5599 7.06951C13.7283 7.05991 13.8983 7.0549 14.0652 7.05473C15.0662 7.05509 16.0458 7.25566 16.9766 7.652L17.0724 7.69261L17.1385 7.61138C18.4804 5.967 20.3655 4.85391 22.4468 4.47751C22.7931 4.41503 23.1466 4.37285 23.498 4.35281C23.7124 4.34059 23.9291 4.33625 24.1417 4.34016C27.8662 4.40629 31.2107 6.20552 33.5606 9.40563C36.8581 13.8946 37.6948 20.4309 35.8009 26.8938L32.7835 26.0068L32.7836 26.0081ZM18.1605 12.8884C18.0577 13.4866 18.0135 14.1161 18.0288 14.759C18.0624 16.2041 18.3941 17.6655 18.9889 18.9852C19.3129 19.7032 19.6239 20.1442 19.9681 20.3737C20.1403 20.4887 20.3365 20.5216 20.4516 20.5151C20.4676 20.5142 20.4816 20.5127 20.4935 20.5107L20.592 20.4937L20.604 20.4116C20.6651 20.2652 20.7509 19.9318 20.6995 19.2516C20.5289 17.0217 19.6522 14.5616 18.4097 12.8315L18.216 12.5614L18.1599 12.8891L18.1605 12.8884Z" fill="#26C7D9"/>
</g>
</svg>
